<svg xmlns="http://www.w3.org/2000/svg" width="1440" height="600" viewBox="0 0 1440 600">
  <defs>
    <linearGradient id="fade" x1="0" y1="0" x2="1" y2="0">
      <stop offset="0%" stop-color="#f0f0f2" stop-opacity="0"/>
      <stop offset="30%" stop-color="#f0f0f2" stop-opacity="0.6"/>
      <stop offset="100%" stop-color="#e8e8ec" stop-opacity="0.9"/>
    </linearGradient>
    <mask id="m">
      <rect width="1440" height="600" fill="url(#fade)"/>
    </mask>
  </defs>
  <g mask="url(#m)" stroke="#b0b4be" fill="none" stroke-width="0.7" opacity="0.55">
    <!-- Grid lines horizontal -->
    <line x1="600" y1="0" x2="1440" y2="0"/>
    <line x1="600" y1="60" x2="1440" y2="60"/>
    <line x1="600" y1="120" x2="1440" y2="120"/>
    <line x1="600" y1="180" x2="1440" y2="180"/>
    <line x1="600" y1="240" x2="1440" y2="240"/>
    <line x1="600" y1="300" x2="1440" y2="300"/>
    <line x1="600" y1="360" x2="1440" y2="360"/>
    <line x1="600" y1="420" x2="1440" y2="420"/>
    <line x1="600" y1="480" x2="1440" y2="480"/>
    <line x1="600" y1="540" x2="1440" y2="540"/>
    <line x1="600" y1="600" x2="1440" y2="600"/>
    <!-- Grid lines vertical -->
    <line x1="660" y1="0" x2="660" y2="600"/>
    <line x1="720" y1="0" x2="720" y2="600"/>
    <line x1="780" y1="0" x2="780" y2="600"/>
    <line x1="840" y1="0" x2="840" y2="600"/>
    <line x1="900" y1="0" x2="900" y2="600"/>
    <line x1="960" y1="0" x2="960" y2="600"/>
    <line x1="1020" y1="0" x2="1020" y2="600"/>
    <line x1="1080" y1="0" x2="1080" y2="600"/>
    <line x1="1140" y1="0" x2="1140" y2="600"/>
    <line x1="1200" y1="0" x2="1200" y2="600"/>
    <line x1="1260" y1="0" x2="1260" y2="600"/>
    <line x1="1320" y1="0" x2="1320" y2="600"/>
    <line x1="1380" y1="0" x2="1380" y2="600"/>
    <line x1="1440" y1="0" x2="1440" y2="600"/>

    <!-- Structural facade: tall building columns -->
    <!-- Left column group -->
    <rect x="700" y="80" width="40" height="520" rx="1"/>
    <rect x="708" y="80" width="6" height="520"/>
    <rect x="726" y="80" width="6" height="520"/>
    <!-- Floor plates on left column -->
    <line x1="700" y1="140" x2="740" y2="140"/>
    <line x1="700" y1="200" x2="740" y2="200"/>
    <line x1="700" y1="260" x2="740" y2="260"/>
    <line x1="700" y1="320" x2="740" y2="320"/>
    <line x1="700" y1="380" x2="740" y2="380"/>
    <line x1="700" y1="440" x2="740" y2="440"/>
    <line x1="700" y1="500" x2="740" y2="500"/>
    <line x1="700" y1="560" x2="740" y2="560"/>

    <!-- Middle column group -->
    <rect x="800" y="40" width="50" height="560" rx="1"/>
    <rect x="809" y="40" width="7" height="560"/>
    <rect x="834" y="40" width="7" height="560"/>
    <!-- Floor plates on middle column -->
    <line x1="800" y1="100" x2="850" y2="100"/>
    <line x1="800" y1="160" x2="850" y2="160"/>
    <line x1="800" y1="220" x2="850" y2="220"/>
    <line x1="800" y1="280" x2="850" y2="280"/>
    <line x1="800" y1="340" x2="850" y2="340"/>
    <line x1="800" y1="400" x2="850" y2="400"/>
    <line x1="800" y1="460" x2="850" y2="460"/>
    <line x1="800" y1="520" x2="850" y2="520"/>
    <line x1="800" y1="580" x2="850" y2="580"/>

    <!-- Right column group -->
    <rect x="920" y="0" width="60" height="600" rx="1"/>
    <rect x="931" y="0" width="8" height="600"/>
    <rect x="960" y="0" width="8" height="600"/>
    <!-- Floor plates on right column -->
    <line x1="920" y1="80" x2="980" y2="80"/>
    <line x1="920" y1="160" x2="980" y2="160"/>
    <line x1="920" y1="240" x2="980" y2="240"/>
    <line x1="920" y1="320" x2="980" y2="320"/>
    <line x1="920" y1="400" x2="980" y2="400"/>
    <line x1="920" y1="480" x2="980" y2="480"/>
    <line x1="920" y1="560" x2="980" y2="560"/>

    <!-- Far right slimmer tower -->
    <rect x="1060" y="20" width="36" height="580" rx="1"/>
    <rect x="1068" y="20" width="5" height="580"/>
    <rect x="1083" y="20" width="5" height="580"/>
    <!-- Floor plates far right -->
    <line x1="1060" y1="100" x2="1096" y2="100"/>
    <line x1="1060" y1="180" x2="1096" y2="180"/>
    <line x1="1060" y1="260" x2="1096" y2="260"/>
    <line x1="1060" y1="340" x2="1096" y2="340"/>
    <line x1="1060" y1="420" x2="1096" y2="420"/>
    <line x1="1060" y1="500" x2="1096" y2="500"/>
    <line x1="1060" y1="580" x2="1096" y2="580"/>

    <!-- Connecting beams / cross-bracing -->
    <line x1="740" y1="80" x2="800" y2="40"/>
    <line x1="740" y1="200" x2="800" y2="160"/>
    <line x1="740" y1="320" x2="800" y2="280"/>
    <line x1="740" y1="440" x2="800" y2="400"/>
    <line x1="740" y1="560" x2="800" y2="520"/>

    <line x1="850" y1="40" x2="920" y2="0"/>
    <line x1="850" y1="160" x2="920" y2="80"/>
    <line x1="850" y1="280" x2="920" y2="160"/>
    <line x1="850" y1="400" x2="920" y2="240"/>
    <line x1="850" y1="520" x2="920" y2="400"/>

    <line x1="980" y1="0" x2="1060" y2="20"/>
    <line x1="980" y1="160" x2="1060" y2="100"/>
    <line x1="980" y1="320" x2="1060" y2="260"/>
    <line x1="980" y1="480" x2="1060" y2="420"/>

    <!-- Horizon base lines -->
    <line x1="640" y1="580" x2="1440" y2="580" stroke-width="1.2"/>
    <line x1="620" y1="590" x2="1440" y2="590" stroke-width="0.4"/>

    <!-- Repeating window pattern on tallest building -->
    <rect x="925" y="88" width="12" height="52" rx="1" opacity="0.5"/>
    <rect x="943" y="88" width="12" height="52" rx="1" opacity="0.5"/>
    <rect x="961" y="88" width="12" height="52" rx="1" opacity="0.5"/>
    <rect x="925" y="168" width="12" height="52" rx="1" opacity="0.5"/>
    <rect x="943" y="168" width="12" height="52" rx="1" opacity="0.5"/>
    <rect x="961" y="168" width="12" height="52" rx="1" opacity="0.5"/>
    <rect x="925" y="248" width="12" height="52" rx="1" opacity="0.5"/>
    <rect x="943" y="248" width="12" height="52" rx="1" opacity="0.5"/>
    <rect x="961" y="248" width="12" height="52" rx="1" opacity="0.5"/>
    <rect x="925" y="328" width="12" height="52" rx="1" opacity="0.5"/>
    <rect x="943" y="328" width="12" height="52" rx="1" opacity="0.5"/>
    <rect x="961" y="328" width="12" height="52" rx="1" opacity="0.5"/>
    <rect x="925" y="408" width="12" height="52" rx="1" opacity="0.5"/>
    <rect x="943" y="408" width="12" height="52" rx="1" opacity="0.5"/>
    <rect x="961" y="408" width="12" height="52" rx="1" opacity="0.5"/>
    <rect x="925" y="488" width="12" height="52" rx="1" opacity="0.5"/>
    <rect x="943" y="488" width="12" height="52" rx="1" opacity="0.5"/>
    <rect x="961" y="488" width="12" height="52" rx="1" opacity="0.5"/>
  </g>
</svg>
